<?xml version="1.0" encoding="utf-8"?>
<!-- Generator: Adobe Illustrator 24.1.1, SVG Export Plug-In . SVG Version: 6.00 Build 0)  -->
<svg version="1.1" id="レイヤー_1" xmlns="http://www.w3.org/2000/svg" xmlns:xlink="http://www.w3.org/1999/xlink" x="0px"
	 y="0px" viewBox="0 0 305.6 101.9" style="enable-background:new 0 0 305.6 101.9;" xml:space="preserve">
<style type="text/css">
	.st0{fill:#FFFFFF;}
	.st1{fill:#0082CA;}
</style>
<g>
	<path class="st0" d="M277.8,18.7c-3.4-10.6-13.4-18.3-25.1-18.3c-11.7,0-21.7,7.7-25.1,18.3l-8.7,26.2V1.8h-46.5
		c-8.4,0-16,3.3-21.6,8.7V1.8h-47.9C94,1.8,86,5.6,80.3,11.6V1.8H35.2C15.8,1.9,0,17.6,0,37.1c0,9.3,3.6,17.7,9.4,24H0v40.9h45.1
		c12.8,0,23.9-6.8,30.1-17c5.1,10.1,15.6,17,27.7,17h47.9v-8.7c5.6,5.4,13.2,8.7,21.6,8.7h133.2L277.8,18.7z"/>
	<g>
		<g>
			<path class="st1" d="M45.1,68.1H7v12h38.1c7.4,0,13.4-6,13.4-13.4c0-7.4-6-13.4-13.4-13.4h-9.9c-9,0-16.2-7.3-16.2-16.2
				c0-9,7.3-16.2,16.2-16.2h38.1v-12H35.2C19.7,8.9,7,21.5,7,37.1c0,15.6,12.6,28.2,28.2,28.2h9.9c0.8,0,1.4,0.6,1.4,1.4
				C46.5,67.4,45.9,68.1,45.1,68.1z"/>
			<path class="st1" d="M35.2,35.7h38.1v-12H35.2c-7.4,0-13.4,6-13.4,13.4c0,7.4,6,13.4,13.4,13.4h9.9c9,0,16.2,7.3,16.2,16.2
				c0,9-7.3,16.2-16.2,16.2H7v12h38.1c15.6,0,28.2-12.6,28.2-28.2S60.7,38.5,45.1,38.5h-9.9c-0.8,0-1.4-0.6-1.4-1.4
				C33.8,36.3,34.5,35.7,35.2,35.7z"/>
		</g>
		<g>
			<path class="st1" d="M172.4,23.7c-5.1,0-9.2,4.1-9.2,9.1v38.1c0,5.1,4.1,9.2,9.2,9.2h24.7V53.3h-19v12h7v2.8h-7
				c-1.6,0-2.8-1.3-2.8-2.8V38.5c0-1.6,1.3-2.8,2.8-2.8h33.8v-12H172.4z"/>
			<path class="st1" d="M247.4,80.1h27.8l-18.9-56.2c-0.5-1.5-1.9-2.6-3.6-2.6c-1.7,0-3.1,1.1-3.6,2.6l-24.5,71.1h14.1l8.6-25.3
				V80.1z M252.5,54.5l4.1,12.1h-8.2L252.5,54.5z"/>
			<path class="st1" d="M271.2,21.4c-2.3-8.1-9.7-14-18.6-14c-8.7,0-16.1,5.8-18.5,13.7l-22.3,65.3v-48H178v12h21.9v32.4h-27.5
				c-6.6,0-12-5.4-12-12V32.8c0-6.6,5.4-12,12-12h39.5v-12c0,0-39.5,0-39.5,0c-13.2,0-24,10.7-24,24l0,38.1c0,13.2,10.7,24,24,24
				h49.3l24.8-71.9c0.9-2.6,3.4-4.5,6.3-4.5c3,0,5.5,1.9,6.3,4.6l20.1,59.9h-31.7v12h48.4h0L271.2,21.4z"/>
		</g>
		<g>
			<path class="st1" d="M102.9,82.9c-6.6,0-12-5.4-12-12l0-38.1c0-6.6,5.4-12,12-12h40.9v-12l-40.9,0c-13.2,0-24,10.7-24,24l0,38.1
				c0,13.2,10.7,24,24,24h40.9v-12L102.9,82.9L102.9,82.9z"/>
			<path class="st1" d="M105.7,65.3l29.6,0v-12H93.7v17.6c0,5.1,4.1,9.2,9.2,9.2h40.9v-12h-35.2C107,68.1,105.7,66.8,105.7,65.3z"/>
			<path class="st1" d="M135.3,38.5l-29.6,0c0-1.6,1.3-2.8,2.8-2.8h35.2v-12h-40.9c-5.1,0-9.2,4.1-9.2,9.1v17.6h41.6L135.3,38.5
				L135.3,38.5z"/>
		</g>
	</g>
	<g>
		<path class="st0" d="M288.7,18.8c2.5,0,4.9-1,6.6-2.8c1.8-1.8,2.8-4.1,2.8-6.6c0-2.5-1-4.9-2.8-6.6C293.6,1,291.2,0,288.7,0
			c-5.2,0-9.4,4.2-9.4,9.4c0,2.5,1,4.9,2.8,6.6C283.9,17.8,286.2,18.8,288.7,18.8z M280.7,9.4c0-2.2,0.8-4.2,2.4-5.7
			c1.5-1.5,3.6-2.4,5.7-2.4c2.2,0,4.2,0.8,5.7,2.4c1.5,1.5,2.4,3.6,2.4,5.7c0,4.5-3.6,8.1-8.1,8.1c-2.2,0-4.2-0.8-5.7-2.4
			C281.5,13.6,280.7,11.6,280.7,9.4z"/>
		<path class="st0" d="M286.3,10.2v4.4H285V4.2h3.9c1.4,0,2.3,0,3.1,0.6c0.8,0.6,1.1,1.4,1.1,2.4c0,2.4-2,2.8-2.5,2.9l2.9,4.5h-1.7
			l-2.8-4.4L286.3,10.2L286.3,10.2z M286.3,9h2.8c0.4,0,0.9,0,1.3-0.1c1-0.2,1.3-0.9,1.3-1.7c0-0.3,0-1-0.6-1.5
			c-0.5-0.5-1.2-0.4-2-0.4h-2.7V9z"/>
	</g>
</g>
</svg>
